<?xml version="1.0" encoding="UTF-8" standalone="no"?>
<svg
   version="1.0"
   width="420pt"
   height="499pt"
   viewBox="0 0 420 499"
   preserveAspectRatio="xMidYMid"
   id="svg3"
   xmlns="http://www.w3.org/2000/svg"
   xmlns:svg="http://www.w3.org/2000/svg">
  <defs
     id="defs3" />
  <g
     transform="matrix(0.1,0,0,-0.1,0,499)"
     fill="#000000"
     stroke="none"
     id="g3">
    <path
       d="m 1885,4770 c -121,-121 -223,-220 -227,-220 -5,0 -8,47 -8,105 v 105 H 1280 910 V 4278 3795 L 529,3414 C 197,3081 149,3030 158,3014 c 6,-11 40,-48 76,-84 l 66,-65 415,415 415,415 v 417 418 h 150 150 l 2,-262 3,-263 330,328 c 182,180 335,327 340,327 5,0 413,-403 905,-895 l 895,-895 77,77 76,78 -976,983 -977,982 z"
       id="path1"
       style="fill:#8a817c;fill-opacity:1" />
    <path
       d="m 2720,3358 c -68,-35 -103,-86 -108,-158 -4,-58 -5,-59 -41,-71 -68,-22 -195,-93 -266,-150 -178,-143 -311,-326 -331,-456 -6,-39 -9,-43 -35,-43 -45,0 -97,30 -114,66 -28,60 -14,238 26,318 12,24 21,29 60,31 125,7 212,112 195,234 -18,128 -171,210 -285,152 -89,-46 -142,-155 -112,-234 9,-22 5,-26 -45,-50 -65,-32 -208,-166 -301,-282 -86,-108 -211,-293 -260,-385 C 999,2133 920,1863 885,1583 l -7,-53 h 81 c 45,0 81,-3 81,-7 0,-5 -11,-109 -25,-233 -14,-124 -25,-228 -25,-233 0,-13 333,-4 337,9 2,7 -28,24 -69,39 -81,31 -108,50 -108,75 0,17 77,250 105,316 14,33 15,34 73,34 h 59 l 73,-245 74,-245 360,2 c 234,2 360,7 359,13 0,6 -28,19 -61,30 -34,11 -64,23 -67,26 -5,6 38,250 84,474 l 8,40 35,-75 c 20,-41 43,-95 51,-120 21,-64 68,-275 74,-337 l 6,-53 h 183 c 109,0 184,4 184,9 0,20 -46,41 -87,41 -74,0 -85,22 -129,250 -14,74 -40,212 -59,305 -52,261 -78,449 -72,535 5,86 50,230 100,324 38,73 108,146 138,146 23,0 67,-42 202,-193 43,-48 125,-126 183,-174 79,-65 101,-89 93,-99 -7,-9 -7,-19 1,-33 12,-23 31,-26 61,-11 14,8 26,7 47,-4 l 28,-15 -27,-178 c -71,-462 -101,-658 -119,-774 -11,-69 -20,-131 -20,-137 0,-7 13,-12 29,-12 h 28 l 58,358 c 128,790 118,737 145,740 33,5 52,21 48,42 -2,10 -61,64 -133,121 -71,57 -184,158 -250,224 -104,103 -127,132 -167,210 -42,83 -78,194 -78,241 0,16 8,19 49,21 59,2 98,21 138,67 146,165 -42,413 -237,314 z m -930,-997 c 32,-25 67,-43 91,-47 l 39,-7 v -132 c 0,-87 6,-162 17,-216 32,-155 14,-588 -31,-740 -8,-25 -24,-65 -35,-87 -19,-37 -25,-42 -56,-42 -36,0 -175,63 -175,79 0,12 -49,309 -55,339 -5,19 -1,22 28,22 h 33 l -33,160 c -58,289 -62,372 -26,534 19,86 39,134 66,164 30,33 72,24 137,-27 z"
       id="path2"
       style="fill:#8a817c;fill-opacity:1" />
    <path
       d="M 2,2165 C -5,1585 214,1035 619,617 922,305 1346,87 1785,18 c 108,-17 514,-17 625,0 728,114 1373,638 1643,1338 85,220 149,523 146,693 l -2,76 -8,-65 C 4138,1664 3971,1275 3726,981 3642,880 3464,709 3368,637 3053,401 2669,254 2285,222 1513,159 789,510 357,1157 277,1277 188,1451 140,1580 72,1763 17,2043 7,2250 c -2,36 -4,-2 -5,-85 z"
       id="path3"
       style="fill:#8a817c;fill-opacity:1" />
  </g>
</svg>
