<?xml version="1.0" encoding="UTF-8" standalone="no"?>
<svg
   enable-background="new 0 0 580 580"
   height="480.60425"
   viewBox="0 0 468.68201 480.60425"
   width="468.68201"
   version="1.1"
   id="svg34"
   xmlns="http://www.w3.org/2000/svg"
   xmlns:svg="http://www.w3.org/2000/svg">
  <defs
     id="defs34" />
  <g
     id="layer8"
     style="fill:#05b5e5;fill-opacity:1">
    <path
       d="m 452.451,444.816 c -7.013,-1.535 -13.404,-9.099 -25.055,-8.566 -11.934,0.413 -28.789,11.103 -45.074,11.103 -4.015,-0.086 -8.15,-0.816 -12.353,-1.869 v -45.805 l -8.671,-8.671 h -32.757 v -37.566 l -10,-10 h -56.225 l 0.195,-0.879 0.031,-0.094 0.094,-0.5 -0.281,-4.063 -2.625,-3.125 -3.485,-0.913 -0.102,-0.732 3.462,0.989 3.844,-1.344 2.344,-3.344 0.094,-0.313 0.031,-0.125 v -0.063 l 1.313,-4.813 h 0.031 l 1.406,-5.063 h 0.031 l 1.531,-5.188 0.031,-0.094 1.625,-5.219 0.031,-0.063 1.5,-4.656 0.031,-4.063 -2.344,-3.344 -3.844,-1.344 -3.938,1.125 -0.147,0.187 1.241,-6.093 -0.375,-4.344 -2.781,-3.375 -4.156,-1.281 -4.188,1.25 -2.781,3.406 -0.406,1.313 -1.375,6.625 v 0.063 l -0.197,1.008 -0.709,-2.633 -3.594,-3.5 -4.875,-1.219 -4.844,1.406 -3.438,3.688 -1.125,4.5 v 9.071 l -0.625,-3.321 v -0.063 l -1.781,-8.938 v -0.063 l -1.375,-6.625 -2.094,-3.844 -3.875,-2 -4.344,0.469 -3.344,2.844 -1.188,4.188 0.156,1.375 1.344,6.594 0.031,0.063 1.719,8.781 0.088,0.456 -0.521,-1.702 -0.031,-0.063 -1.531,-4.719 -2.406,-3.313 -3.844,-1.313 -3.906,1.156 -2.5,3.25 -0.188,4.063 0.094,0.281 1.531,4.656 v 0.063 h 0.031 l 1.594,5.219 0.031,0.094 1.531,5.094 0.031,0.094 1.406,4.969 0.031,0.094 1.313,4.813 0.031,0.063 0.031,0.125 2.188,3.469 3.781,1.531 3.969,-0.938 2.688,-3.094 0.406,-4.031 -0.063,-0.313 -0.063,-0.188 -0.031,-0.094 -0.437,-1.616 3.125,1.741 4.375,-0.375 2.625,-2.119 v 3.355 l -1.219,-0.705 -4.375,0.281 -3.469,2.656 -1.375,4.156 0.094,1.375 0.059,0.364 -1.872,-0.802 -4,0.844 -2.75,3 -0.5,4.063 0.063,0.281 0.125,0.5 0.031,0.094 0.195,0.879 h -56.221 l -10,10 v 37.566 h -28.154 l -8.671,8.671 v 47.043 c -3.797,1.165 -7.535,1.997 -11.165,2.17 -15.043,0.234 -28.675,-10.988 -41.964,-11.105 -13.403,-0.234 -28.448,8.209 -37.497,10.1 C 7.8610009,449.719 2.1490009,449.657 8.3924444e-7,448.359 v 31.303 C 2.1490009,480.96 7.8610009,481.021 16.91,479.188 c 9.049,-1.892 24.093,-10.335 37.497,-10.101 13.291,0.118 26.921,11.341 41.964,11.105 14.931,-0.711 31.671,-12.522 46.942,-13.112 14.875,-0.474 28.165,10.277 43.153,10.572 15.214,0.117 30.654,-9.982 46.942,-9.568 16.062,0.236 32.406,11.163 48.808,11.103 16.117,-0.353 31.388,-11.991 48.186,-12.106 16.854,0 35.403,11.222 51.92,11.574 16.285,0 33.142,-10.689 45.074,-11.103 11.65,-0.414 18.042,7.026 25.055,8.623 6.899,1.478 12.159,1.714 16.231,0.475 v -31.303 c -4.071,1.122 -9.331,0.946 -16.231,-0.531 z M 251.576,325.75 l 1.462,-0.483 -0.056,0.202 v 0.094 l -0.063,0.188 0.059,1.082 -0.184,-0.207 -4.031,-1.008 v -0.638 z m -12.219,17.469 0.485,-0.141 -0.048,0.363 h -4.046 l -0.16,-1.165 z"
       fill="rgba(68,85,255,1.0)"
       fill-opacity="1"
       stroke="rgba(35,35,35,1.0)"
       stroke-opacity="1"
       stroke-width="16"
       id="path1"
       style="fill:#05b5e5;fill-opacity:1" />
    <path
       d="m 192.669,195.031 -3.031,3.125 -0.812,4.313 0.312,1.344 0.313,1.093 0.031,0.094 3.156,10.719 0.031,0.062 3,10.688 0.032,0.094 1.562,5.843 2.344,3.688 3.969,1.781 4.312,-0.719 3.156,-3.031 0.938,-4.281 -0.219,-1.344 -1.594,-5.937 -0.031,-0.063 -3.062,-10.844 -0.032,-0.093 -3.187,-10.907 -0.031,-0.093 -0.375,-1.188 -2.438,-3.594 -4.062,-1.656 z"
       fill="rgba(68,85,255,1.0)"
       fill-opacity="1"
       stroke="rgba(35,35,35,1.0)"
       stroke-opacity="1"
       stroke-width="16"
       id="path2"
       style="fill:#05b5e5;fill-opacity:1" />
    <path
       d="m 178.044,152.563 -2.875,3.312 -0.531,4.344 0.375,1.344 0.156,0.437 0.032,0.094 3.781,10.5 0.031,0.094 3.594,10.593 2.062,6.313 2.5,3.594 4.063,1.593 4.281,-0.968 3,-3.188 0.719,-4.312 -0.281,-1.344 -2.063,-6.313 -0.031,-0.093 -3.688,-10.813 -0.031,-0.125 -3.844,-10.687 -0.031,-0.094 -0.187,-0.531 -2.657,-3.469 -4.156,-1.406 z"
       fill="rgba(68,85,255,1.0)"
       fill-opacity="1"
       stroke="rgba(35,35,35,1.0)"
       stroke-opacity="1"
       stroke-width="16"
       id="path3"
       style="fill:#05b5e5;fill-opacity:1" />
    <path
       d="m 160.232,111.406 -2.563,3.532 -0.156,4.375 0.469,1.312 0.562,1.156 0.032,0.094 2.156,4.688 0.062,0.093 2.125,4.782 0.032,0.093 2.093,4.844 0.032,0.094 2.062,4.937 0.031,0.063 2.032,5 0.031,0.062 0.469,1.157 2.718,3.406 4.157,1.312 4.187,-1.218 2.813,-3.344 0.437,-4.344 -0.375,-1.344 -0.469,-1.187 -0.031,-0.063 -2.094,-5.156 -0.031,-0.062 -2.125,-5.094 -0.031,-0.094 -2.156,-5 -0.063,-0.094 -2.187,-4.937 -0.032,-0.094 -2.25,-4.875 -0.062,-0.094 -0.594,-1.25 -2.937,-3.218 -4.25,-1.032 z"
       fill="rgba(68,85,255,1.0)"
       fill-opacity="1"
       stroke="rgba(35,35,35,1.0)"
       stroke-opacity="1"
       stroke-width="16"
       id="path4"
       style="fill:#05b5e5;fill-opacity:1" />
    <path
       d="m 205.013,238.219 -3.187,3 -1,4.25 0.218,1.375 0.219,0.844 0.031,0.062 2.532,10.313 0.031,0.062 2.375,10.156 h 0.031 l 1.688,7.532 2.156,3.781 3.937,1.937 4.313,-0.562 3.281,-2.875 1.125,-4.25 -0.187,-1.344 -1.719,-7.625 v -0.062 l -2.438,-10.219 v -0.063 l -2.593,-10.437 v -0.063 l -0.25,-0.937 -2.282,-3.75 -3.968,-1.813 z"
       fill="rgba(68,85,255,1.0)"
       fill-opacity="1"
       stroke="rgba(35,35,35,1.0)"
       stroke-opacity="1"
       stroke-width="16"
       id="path5"
       style="fill:#05b5e5;fill-opacity:1" />
    <path
       d="m 77.013,116.906 4.375,-0.25 3.469,-2.656 0.687,-1.187 0.688,-1.469 0.062,-0.156 2.25,-4.5 0.063,-0.157 2.281,-4.375 0.094,-0.156 2.344,-4.187 0.093,-0.188 2.344,-3.969 0.125,-0.187 2.406,-3.781 0.063,-0.094 0.062,-0.094 1.094,-1.594 h 0.031 v -0.031 l 0.094,-0.125 -0.031,-0.031 1.344,-3.969 -1.125,-4.219 -3.282,-2.875 -4.343,-0.562 -3.907,1.969 -0.906,1.031 -0.031,0.031 -0.094,0.156 -1.344,1.969 -0.125,0.188 -2.656,4.156 -0.125,0.219 -2.594,4.343 -0.093,0.188 -2.532,4.531 -0.093,0.156 -2.438,4.688 -0.094,0.156 -2.375,4.813 -0.062,0.125 -0.75,1.625 -0.625,4.312 1.906,3.938 z"
       fill="rgba(68,85,255,1.0)"
       fill-opacity="1"
       stroke="rgba(35,35,35,1.0)"
       stroke-opacity="1"
       stroke-width="16"
       id="path6"
       style="fill:#05b5e5;fill-opacity:1" />
    <path
       d="m 135.044,77.813 0.969,4.25 0.781,1.125 0.75,0.875 0.157,0.187 0.093,0.125 0.969,1.25 0.063,0.063 0.125,0.187 0.5,0.781 0.156,0.188 0.062,0.125 0.094,0.125 2.375,3.844 0.094,0.125 2.344,3.937 0.093,0.125 2.313,4.094 0.062,0.094 2.313,4.218 0.062,0.094 2.032,3.844 3.093,3.094 4.282,0.843 4.031,-1.656 2.406,-3.656 -0.031,-4.375 -0.531,-1.281 -2.063,-3.938 -0.062,-0.094 -2.438,-4.437 -0.062,-0.094 -2.469,-4.312 -0.063,-0.125 -2.531,-4.188 -0.062,-0.125 -2.532,-4.094 -0.093,-0.125 -0.282,-0.437 -0.156,-0.219 -0.844,-1.219 -0.187,-0.25 -1.375,-1.812 -0.25,-0.281 -0.969,-1.188 -3.687,-2.344 -4.375,0.063 -3.563,2.5 z"
       fill="rgba(68,85,255,1.0)"
       fill-opacity="1"
       stroke="rgba(35,35,35,1.0)"
       stroke-opacity="1"
       stroke-width="16"
       id="path7"
       style="fill:#05b5e5;fill-opacity:1" />
    <path
       d="m 45.013,200.594 4.094,1.469 4.25,-1.032 2.937,-3.25 0.469,-1.312 1.406,-5.438 v -0.062 l 2.063,-7.563 0.031,-0.093 2.406,-8.407 0.032,-0.093 2.093,-6.938 v -4.344 l -2.437,-3.625 -4.063,-1.656 -4.281,0.875 -3.031,3.125 -0.531,1.281 -2.125,7.032 -0.032,0.093 -2.468,8.594 -0.032,0.094 -2.093,7.75 -0.032,0.094 -1.437,5.5 0.187,4.375 z"
       fill="rgba(68,85,255,1.0)"
       fill-opacity="1"
       stroke="rgba(35,35,35,1.0)"
       stroke-opacity="1"
       stroke-width="16"
       id="path8"
       style="fill:#05b5e5;fill-opacity:1" />
    <path
       d="m 61.294,158.875 4.313,-0.75 3.156,-3.031 0.563,-1.25 0.906,-2.719 0.031,-0.062 1.719,-4.938 0.031,-0.094 1.781,-4.968 0.032,-0.063 1.875,-4.969 0.031,-0.093 1.937,-4.969 0.032,-0.094 1.937,-4.719 0.406,-4.343 -2.093,-3.844 -3.907,-2.031 -4.343,0.5 -3.313,2.843 -0.656,1.219 -1.938,4.813 -0.062,0.093 -2,5.157 -0.031,0.093 -1.938,5.157 -0.031,0.062 -1.844,5.125 -0.031,0.094 -1.781,5.094 -0.032,0.062 -0.937,2.781 -0.125,4.375 2.312,3.688 z"
       fill="rgba(68,85,255,1.0)"
       fill-opacity="1"
       stroke="rgba(35,35,35,1.0)"
       stroke-opacity="1"
       stroke-width="16"
       id="path9"
       style="fill:#05b5e5;fill-opacity:1" />
    <path
       d="m 98.763,78.219 4.094,1.594 4.25,-0.969 1.125,-0.781 0.312,-0.25 1,-0.813 0.125,-0.094 0.125,-0.093 0.719,-0.5 0.188,-0.125 0.093,-0.063 0.657,-0.437 0.156,-0.094 0.156,-0.094 0.938,-0.5 0.562,-0.281 0.844,-0.406 0.219,-0.094 0.156,-0.063 0.437,-0.156 0.407,-0.156 0.406,-0.125 0.156,-0.031 0.25,-0.094 0.375,-0.094 0.281,-0.062 0.125,-0.032 0.344,-0.062 0.75,-0.125 h 0.063 l 0.343,-0.063 0.313,-0.031 h 0.156 l 0.563,-0.031 h 0.187 0.219 l 0.656,0.031 h 0.031 l 0.688,0.063 0.312,0.031 0.25,0.031 0.125,0.031 0.625,0.125 h 0.063 l 1.25,0.313 1.312,0.437 1.5,0.688 0.157,0.062 0.812,0.438 4.313,0.844 4,-1.719 2.406,-3.656 -0.063,-4.375 -2.5,-3.594 -1.156,-0.75 -1.312,-0.688 -0.5,-0.25 -1.907,-0.843 -0.562,-0.219 -1.969,-0.688 -0.625,-0.187 -2.062,-0.5 -0.532,-0.094 -1.062,-0.187 -0.375,-0.063 -1.063,-0.125 -0.375,-0.031 -1.093,-0.094 h -0.407 l -1.093,-0.031 h -0.407 l -1.125,0.062 h -0.406 l -1.125,0.125 -0.406,0.032 -1.156,0.187 -0.407,0.063 -1.187,0.25 -0.406,0.093 -1.157,0.313 -0.406,0.094 -1.187,0.406 -0.375,0.125 -1.219,0.469 -0.375,0.156 -1.219,0.531 -0.344,0.156 -1.218,0.625 -0.344,0.188 -1.219,0.719 -0.312,0.187 -1.25,0.781 -0.313,0.219 -1.25,0.875 -0.281,0.219 -1.25,0.969 -0.25,0.218 -0.531,0.438 -2.375,3.656 0.062,4.375 z"
       fill="rgba(68,85,255,1.0)"
       fill-opacity="1"
       stroke="rgba(35,35,35,1.0)"
       stroke-opacity="1"
       stroke-width="16"
       id="path10"
       style="fill:#05b5e5;fill-opacity:1" />
    <path
       d="m 255.951,280.281 4.187,1.344 4.188,-1.187 2.812,-3.313 0.438,-1.312 1.687,-7.532 h 0.031 l 2.407,-10.156 v -0.062 l 2.531,-10.313 0.031,-0.062 0.219,-0.844 -0.188,-4.375 -2.593,-3.531 -4.125,-1.469 -4.219,1.062 -2.938,3.25 -0.468,1.313 -0.219,0.937 -0.031,0.063 -2.594,10.437 v 0.063 l -2.406,10.219 -0.032,0.062 -1.718,7.625 0.312,4.344 z"
       fill="rgba(68,85,255,1.0)"
       fill-opacity="1"
       stroke="rgba(35,35,35,1.0)"
       stroke-opacity="1"
       stroke-width="16"
       id="path11"
       style="fill:#05b5e5;fill-opacity:1" />
    <path
       d="m 266.482,236.406 4.094,1.532 4.25,-1.032 2.968,-3.218 0.469,-1.282 1.563,-5.843 0.031,-0.094 3,-10.688 0.031,-0.062 3.156,-10.719 0.032,-0.094 0.343,-1.093 v -4.375 l -2.406,-3.625 -4.062,-1.688 -4.282,0.875 -3.062,3.125 -0.531,1.25 -0.375,1.188 v 0.093 l -3.219,10.907 -0.031,0.093 -3.063,10.844 -0.031,0.063 -1.594,5.937 0.156,4.375 z"
       fill="rgba(68,85,255,1.0)"
       fill-opacity="1"
       stroke="rgba(35,35,35,1.0)"
       stroke-opacity="1"
       stroke-width="16"
       id="path12"
       style="fill:#05b5e5;fill-opacity:1" />
    <path
       d="m 342.232,75.906 4.375,-0.031 1.281,-0.531 0.844,-0.438 1.656,-0.75 1.281,-0.437 1.25,-0.313 h 0.063 l 0.625,-0.125 0.125,-0.031 0.25,-0.031 0.312,-0.031 0.688,-0.063 h 0.062 l 0.625,-0.031 h 0.219 0.188 l 0.562,0.031 h 0.156 l 0.313,0.031 0.281,0.032 0.156,0.031 0.719,0.125 0.375,0.062 0.25,0.063 0.125,0.031 0.75,0.219 h 0.031 l 0.813,0.281 0.469,0.156 0.312,0.157 h 0.031 l 0.5,0.218 0.375,0.188 0.532,0.281 0.937,0.5 0.156,0.094 0.157,0.094 0.656,0.437 0.156,0.094 0.125,0.094 0.719,0.5 1.031,0.781 0.219,0.219 h 0.031 l 0.281,0.25 4,1.718 4.313,-0.812 3.125,-3.063 0.875,-4.281 -1.656,-4.062 -0.969,-0.969 -0.531,-0.438 -0.25,-0.218 -1.282,-0.969 -0.281,-0.219 -1.25,-0.875 -0.281,-0.219 -1.25,-0.781 -0.313,-0.187 -1.25,-0.719 -0.343,-0.188 -1.219,-0.625 -0.344,-0.156 -1.219,-0.531 -0.375,-0.156 -1.187,-0.469 -0.406,-0.125 -1.188,-0.406 -0.375,-0.094 -1.187,-0.313 -0.407,-0.093 -1.156,-0.25 -0.406,-0.063 -1.156,-0.187 -0.407,-0.032 -1.156,-0.125 h -0.406 l -1.125,-0.062 h -0.406 l -1.094,0.031 h -0.406 l -1.094,0.094 -0.375,0.031 -1.063,0.125 -0.375,0.063 -1.062,0.187 -0.531,0.094 -2.032,0.5 -0.656,0.187 -1.969,0.688 -0.562,0.219 -1.906,0.843 -0.5,0.25 -1.313,0.688 -3.094,3.062 -0.875,4.313 1.688,4.031 z"
       fill="rgba(68,85,255,1.0)"
       fill-opacity="1"
       stroke="rgba(35,35,35,1.0)"
       stroke-opacity="1"
       stroke-width="16"
       id="path13"
       style="fill:#05b5e5;fill-opacity:1" />
    <path
       d="m 282.919,194.75 4.282,-0.812 3.125,-3.063 0.531,-1.281 2.031,-6.188 0.031,-0.125 3.594,-10.593 0.031,-0.094 3.782,-10.5 0.031,-0.094 0.156,-0.437 0.281,-4.375 -2.218,-3.782 -3.938,-1.906 -4.312,0.625 -3.25,2.938 -0.594,1.25 -0.219,0.531 -0.031,0.094 -3.844,10.687 -0.031,0.125 -3.688,10.813 -0.031,0.093 -2.031,6.313 -0.094,4.375 2.375,3.687 z"
       fill="rgba(68,85,255,1.0)"
       fill-opacity="1"
       stroke="rgba(35,35,35,1.0)"
       stroke-opacity="1"
       stroke-width="16"
       id="path14"
       style="fill:#05b5e5;fill-opacity:1" />
    <path
       d="m 297.576,152.313 4.343,-0.532 3.313,-2.875 0.625,-1.218 0.437,-1.157 0.032,-0.062 2.031,-5 0.031,-0.063 2.063,-4.937 0.031,-0.094 2.094,-4.844 0.031,-0.093 2.156,-4.782 0.031,-0.093 2.157,-4.688 0.031,-0.094 0.562,-1.156 0.657,-4.344 -1.875,-3.937 -3.75,-2.25 -4.375,0.25 -3.5,2.625 -0.688,1.187 -0.594,1.25 -0.062,0.094 -2.219,4.875 -0.062,0.094 -2.188,4.937 -0.031,0.094 -2.188,5 -0.031,0.094 -2.125,5.094 -0.031,0.062 -2.094,5.156 -0.031,0.063 -0.469,1.187 -0.344,4.375 2.125,3.813 z"
       fill="rgba(68,85,255,1.0)"
       fill-opacity="1"
       stroke="rgba(35,35,35,1.0)"
       stroke-opacity="1"
       stroke-width="16"
       id="path15"
       style="fill:#05b5e5;fill-opacity:1" />
    <path
       d="m 414.326,159.125 -3.063,3.125 -0.812,4.281 0.281,1.344 2.094,6.938 0.031,0.093 2.406,8.407 0.031,0.093 2.063,7.563 0.031,0.062 1.406,5.438 2.282,3.719 3.968,1.843 4.313,-0.718 3.187,-3 0.969,-4.25 -0.219,-1.375 -1.437,-5.5 v -0.094 l -2.125,-7.75 -0.031,-0.094 -2.469,-8.594 -0.031,-0.093 -2.125,-7.032 -2.438,-3.625 -4.031,-1.656 z"
       fill="rgba(68,85,255,1.0)"
       fill-opacity="1"
       stroke="rgba(35,35,35,1.0)"
       stroke-opacity="1"
       stroke-width="16"
       id="path16"
       style="fill:#05b5e5;fill-opacity:1" />
    <path
       d="m 374.669,82.375 0.625,4.344 0.625,1.031 h -0.031 l 0.125,0.156 1.094,1.594 0.062,0.094 0.063,0.094 2.406,3.781 0.125,0.187 2.344,3.969 0.125,0.188 2.312,4.187 0.094,0.156 2.281,4.375 0.063,0.157 2.25,4.5 0.062,0.156 0.688,1.469 2.937,3.218 4.219,1.063 4.125,-1.469 2.594,-3.531 0.156,-4.375 -0.469,-1.281 -0.75,-1.625 -0.062,-0.125 -2.375,-4.813 -0.063,-0.156 -2.468,-4.688 -0.094,-0.156 -2.5,-4.531 -0.125,-0.188 -2.594,-4.343 -0.125,-0.219 -2.625,-4.156 -0.125,-0.188 -1.344,-1.969 -0.125,-0.156 -0.031,-0.031 -3.469,-2.625 -4.375,-0.25 -3.75,2.219 z"
       fill="rgba(68,85,255,1.0)"
       fill-opacity="1"
       stroke="rgba(35,35,35,1.0)"
       stroke-opacity="1"
       stroke-width="16"
       id="path17"
       style="fill:#05b5e5;fill-opacity:1" />
    <path
       d="m 398.669,117.094 -2.75,3.375 -0.406,4.375 0.375,1.312 1.938,4.719 0.031,0.094 1.937,4.969 0.032,0.093 1.875,4.969 0.031,0.063 1.781,4.968 0.031,0.094 1.719,4.938 0.031,0.062 0.907,2.719 2.562,3.531 4.094,1.531 4.25,-1 2.969,-3.218 0.656,-4.313 -0.313,-1.344 -0.937,-2.781 -0.031,-0.062 -1.75,-5.094 -0.032,-0.094 -1.875,-5.125 -0.031,-0.062 -1.937,-5.157 -0.032,-0.093 -2,-5.157 -0.031,-0.093 -1.969,-4.813 -2.75,-3.406 -4.187,-1.281 z"
       fill="rgba(68,85,255,1.0)"
       fill-opacity="1"
       stroke="rgba(35,35,35,1.0)"
       stroke-opacity="1"
       stroke-width="16"
       id="path18"
       style="fill:#05b5e5;fill-opacity:1" />
    <path
       d="m 315.357,111.156 4.375,-0.062 3.594,-2.469 0.75,-1.156 2.031,-3.844 0.062,-0.094 2.313,-4.218 0.062,-0.094 2.344,-4.094 0.063,-0.125 2.375,-3.937 0.062,-0.125 2.375,-3.844 0.094,-0.125 0.062,-0.125 0.157,-0.188 0.531,-0.781 0.156,-0.187 0.031,-0.063 0.938,-1.25 0.125,-0.156 0.125,-0.156 0.75,-0.875 1.719,-4 -0.813,-4.313 -3.062,-3.094 -4.282,-0.906 -4.031,1.656 -1,0.969 -0.969,1.188 -0.25,0.281 -1.375,1.812 -0.187,0.25 -0.844,1.219 -0.156,0.219 -0.281,0.437 -0.063,0.125 -2.562,4.094 -0.063,0.125 -2.5,4.188 -0.094,0.125 -2.468,4.312 -0.063,0.094 -2.406,4.437 -0.063,0.094 -2.093,3.938 -0.844,4.281 1.719,4.031 z"
       fill="rgba(68,85,255,1.0)"
       fill-opacity="1"
       stroke="rgba(35,35,35,1.0)"
       stroke-opacity="1"
       stroke-width="16"
       id="path19"
       style="fill:#05b5e5;fill-opacity:1" />
    <path
       d="m 364.888,289.188 2.25,3.406 3.844,1.437 3.937,-1.031 2.594,-3.156 0.313,-4.063 -0.063,-0.281 -0.5,-1.687 -0.031,-0.125 -1.531,-5 -0.032,-0.094 -1.156,-3.469 -0.031,-0.094 -1.375,-4 -0.031,-0.093 -1.594,-4.438 -0.063,-0.125 -1.812,-4.75 -0.063,-0.156 -0.781,-1.938 -2.625,-3.125 -3.937,-1.031 -3.813,1.438 -2.281,3.375 0.125,4.093 0.125,0.282 0.75,1.843 0.031,0.125 1.75,4.532 0.031,0.125 1.532,4.218 0.031,0.094 1.312,3.781 0.032,0.063 v 0.031 l 1.062,3.281 0.031,0.094 1.5,4.781 h -0.031 z"
       fill="rgba(68,85,255,1.0)"
       fill-opacity="1"
       stroke="rgba(35,35,35,1.0)"
       stroke-opacity="1"
       stroke-width="16"
       id="path20"
       style="fill:#05b5e5;fill-opacity:1" />
    <path
       d="m 313.701,224.438 0.25,-0.188 0.937,-0.75 1.063,-0.75 0.718,-0.469 0.282,-0.156 0.468,-0.25 0.782,-0.406 0.218,-0.094 0.125,-0.062 0.438,-0.188 0.062,-0.031 0.75,-0.25 1.188,-0.313 0.094,-0.031 0.843,-0.156 h 0.032 l 0.625,-0.063 0.531,-0.031 h 0.187 l 1.094,0.063 0.531,0.062 0.094,0.031 1.156,0.25 0.75,0.219 0.094,0.031 1.25,0.532 1.219,0.656 0.187,0.094 1.032,0.687 3.937,1.031 3.813,-1.406 2.281,-3.375 -0.094,-4.094 -2.469,-3.25 -0.25,-0.187 -1.5,-0.938 -0.468,-0.281 -1.625,-0.875 -0.5,-0.25 -1.625,-0.687 -0.563,-0.219 -1.562,-0.5 -0.563,-0.156 -1.562,-0.375 -0.594,-0.094 -1.5,-0.219 -0.594,-0.062 -1.469,-0.063 h -0.562 l -1.438,0.031 -0.531,0.032 -1.375,0.187 -0.531,0.063 -1.344,0.281 -0.469,0.094 -1.281,0.343 -0.437,0.157 -1.219,0.406 -0.406,0.156 -1.188,0.5 -0.344,0.156 -1.125,0.532 -0.312,0.187 -1.063,0.563 -0.281,0.187 -1,0.594 -0.344,0.25 -1.812,1.281 -0.375,0.281 -0.938,0.782 -2.187,3.437 0.187,4.063 2.532,3.187 3.906,1.156 z"
       fill="rgba(68,85,255,1.0)"
       fill-opacity="1"
       stroke="rgba(35,35,35,1.0)"
       stroke-opacity="1"
       stroke-width="16"
       id="path21"
       style="fill:#05b5e5;fill-opacity:1" />
    <path
       d="m 293.232,255.594 0.125,-0.281 0.5,-0.969 0.094,-0.156 2.625,-4.907 0.093,-0.156 2.688,-4.719 0.125,-0.187 2.781,-4.531 2.969,-4.563 0.125,-0.156 1.25,-1.813 1.219,-3.906 -1.313,-3.875 -3.281,-2.406 -4.063,-0.063 -3.375,2.344 -0.187,0.25 -1.344,1.969 -0.125,0.156 -3.094,4.688 -0.093,0.187 -3,4.906 -0.094,0.157 -2.906,5.062 -0.094,0.156 -2.781,5.219 -0.094,0.156 -0.563,1.125 -0.656,4 1.813,3.657 3.593,1.937 4.063,-0.5 z"
       fill="rgba(68,85,255,1.0)"
       fill-opacity="1"
       stroke="rgba(35,35,35,1.0)"
       stroke-opacity="1"
       stroke-width="16"
       id="path22"
       style="fill:#05b5e5;fill-opacity:1" />
    <path
       d="m 282.513,257.719 -4.031,0.687 -2.875,2.907 -0.125,0.281 -1.406,3.094 -0.063,0.125 -2.406,5.562 -0.031,0.125 -2.313,5.594 -0.031,0.125 -2.188,5.625 -0.031,0.094 -1.812,4.875 -0.188,4.062 2.188,3.438 3.781,1.5 3.969,-0.969 2.656,-3.063 0.125,-0.312 1.781,-4.781 0.031,-0.094 2.125,-5.406 0.032,-0.125 2.187,-5.375 h 0.031 l 2.344,-5.469 0.063,-0.125 1.343,-2.969 0.469,-4.062 -1.969,-3.563 z"
       fill="rgba(68,85,255,1.0)"
       fill-opacity="1"
       stroke="rgba(35,35,35,1.0)"
       stroke-opacity="1"
       stroke-width="16"
       id="path23"
       style="fill:#05b5e5;fill-opacity:1" />
    <path
       d="m 338.294,230.75 0.969,1.281 0.125,0.188 1.438,2 0.093,0.156 1.407,2.094 0.093,0.156 1.375,2.219 0.063,0.125 1.344,2.281 0.093,0.125 1.313,2.344 0.062,0.094 1.282,2.406 0.062,0.094 1.25,2.437 0.063,0.094 1.187,2.437 0.063,0.125 0.562,1.188 2.75,3 4,0.844 3.719,-1.625 2.094,-3.5 -0.313,-4.063 -0.125,-0.281 -0.625,-1.344 -0.062,-0.125 -1.313,-2.656 -0.031,-0.125 -1.375,-2.625 -0.063,-0.125 -1.406,-2.594 -0.062,-0.125 -1.438,-2.594 -0.094,-0.125 -1.5,-2.531 -0.062,-0.125 -1.563,-2.5 -0.093,-0.125 -1.594,-2.406 -0.094,-0.156 -1.656,-2.344 -0.125,-0.188 -1.094,-1.437 -3.312,-2.375 h -4.094 l -3.313,2.375 -1.312,3.875 1.156,3.906 z"
       fill="rgba(68,85,255,1.0)"
       fill-opacity="1"
       stroke="rgba(35,35,35,1.0)"
       stroke-opacity="1"
       stroke-width="16"
       id="path24"
       style="fill:#05b5e5;fill-opacity:1" />
    <path
       d="m 141.919,223.031 0.282,-0.156 1.031,-0.687 0.187,-0.094 0.938,-0.531 0.187,-0.063 1.25,-0.562 0.157,-0.063 0.718,-0.219 1.125,-0.25 0.157,-0.031 0.562,-0.062 1.063,-0.063 h 0.187 l 0.531,0.031 0.657,0.063 h 0.093 l 0.782,0.156 0.093,0.031 1.188,0.313 0.406,0.125 0.188,0.094 0.218,0.062 0.438,0.188 0.156,0.062 0.188,0.094 0.781,0.406 0.469,0.25 0.281,0.156 0.719,0.469 1.062,0.75 0.094,0.094 0.812,0.656 3.813,1.531 3.937,-0.968 2.688,-3.094 0.375,-4.063 -2.031,-3.531 -0.25,-0.187 -0.907,-0.782 -0.406,-0.281 -1.781,-1.281 -0.375,-0.25 -1,-0.594 -0.281,-0.187 -1.063,-0.563 -0.312,-0.187 -1.125,-0.532 -0.344,-0.156 -1.188,-0.5 -0.375,-0.156 -1.25,-0.406 -0.406,-0.157 -1.312,-0.343 -0.469,-0.094 -1.344,-0.281 -0.5,-0.063 -1.375,-0.187 -0.562,-0.032 -1.407,-0.031 h -0.593 l -1.469,0.063 -0.563,0.062 -1.531,0.219 -0.594,0.094 -1.531,0.375 -0.562,0.156 -1.594,0.5 -0.531,0.219 -1.625,0.687 -0.5,0.25 -1.657,0.875 -0.468,0.281 -1.469,0.938 -2.625,3.156 -0.281,4.063 2.125,3.468 3.75,1.625 z"
       fill="rgba(68,85,255,1.0)"
       fill-opacity="1"
       stroke="rgba(35,35,35,1.0)"
       stroke-opacity="1"
       stroke-width="16"
       id="path25"
       style="fill:#05b5e5;fill-opacity:1" />
    <path
       d="m 121.638,252.875 0.125,-0.281 0.563,-1.188 0.062,-0.125 1.188,-2.437 0.062,-0.094 1.25,-2.437 0.063,-0.094 1.281,-2.406 0.062,-0.094 1.313,-2.344 0.062,-0.125 1.344,-2.281 0.094,-0.125 1.375,-2.219 0.094,-0.156 1.406,-2.094 0.094,-0.156 1.406,-2 0.125,-0.188 0.969,-1.281 1.343,-3.844 -1.156,-3.937 -3.187,-2.5 -4.094,-0.219 -3.406,2.219 -0.219,0.25 -1.094,1.437 -0.125,0.188 -1.625,2.344 -0.094,0.156 -1.593,2.406 -0.094,0.125 -1.563,2.5 -0.093,0.125 -1.5,2.531 -0.063,0.125 -1.469,2.594 -0.062,0.125 -1.406,2.594 -0.032,0.125 -1.375,2.625 -0.062,0.125 -1.281,2.656 -0.094,0.125 -0.594,1.344 -0.531,4.031 1.937,3.594 3.657,1.812 4.031,-0.656 z"
       fill="rgba(68,85,255,1.0)"
       fill-opacity="1"
       stroke="rgba(35,35,35,1.0)"
       stroke-opacity="1"
       stroke-width="16"
       id="path26"
       style="fill:#05b5e5;fill-opacity:1" />
    <path
       d="m 114.013,271.063 1.719,-4.532 0.062,-0.125 0.75,-1.843 0.313,-4.063 -2.125,-3.5 -3.719,-1.625 -4,0.875 -2.75,3 -0.125,0.281 -0.812,1.938 -0.032,0.156 -1.843,4.75 -0.032,0.125 -1.593,4.438 -0.063,0.093 -1.375,4 -0.031,0.094 -1.125,3.469 -0.031,0.094 -1.532,5 -0.062,0.125 -0.469,1.687 0.125,4.063 2.469,3.25 3.875,1.218 3.875,-1.25 2.437,-3.281 0.094,-0.312 0.438,-1.563 0.031,-0.094 1.469,-4.781 0.031,-0.094 1.094,-3.281 0.031,-0.094 1.344,-3.875 h -0.032 l 1.532,-4.218 z"
       fill="rgba(68,85,255,1.0)"
       fill-opacity="1"
       stroke="rgba(35,35,35,1.0)"
       stroke-opacity="1"
       stroke-width="16"
       id="path27"
       style="fill:#05b5e5;fill-opacity:1" />
    <path
       d="m 195.138,291.469 2.531,3.219 3.907,1.156 3.875,-1.344 2.343,-3.312 v -4.094 l -0.093,-0.281 -1.813,-4.875 -0.031,-0.094 -2.188,-5.625 -0.062,-0.125 -2.281,-5.594 -0.063,-0.125 -2.375,-5.562 -0.062,-0.125 -1.407,-3.094 -2.75,-3.031 -3.968,-0.875 -3.75,1.593 -2.125,3.469 0.281,4.063 0.125,0.312 1.344,2.969 0.062,0.125 2.281,5.344 0.063,0.125 2.187,5.375 0.063,0.125 2.125,5.406 h -0.031 z"
       fill="rgba(68,85,255,1.0)"
       fill-opacity="1"
       stroke="rgba(35,35,35,1.0)"
       stroke-opacity="1"
       stroke-width="16"
       id="path28"
       style="fill:#05b5e5;fill-opacity:1" />
    <path
       d="m 166.263,233.156 1.281,1.813 0.094,0.156 2.875,4.375 0.125,0.188 2.781,4.531 0.094,0.187 2.719,4.719 0.094,0.156 2.625,4.907 0.093,0.156 0.469,0.969 2.875,2.906 4,0.719 3.688,-1.782 1.968,-3.562 -0.437,-4.031 -0.125,-0.282 -0.594,-1.125 -0.062,-0.156 -2.813,-5.219 -0.062,-0.156 -2.907,-5.062 -0.093,-0.157 -3,-4.906 -0.125,-0.187 -3.094,-4.688 -0.094,-0.156 -1.375,-1.969 -3.219,-2.469 -4.093,-0.156 -3.407,2.25 -1.468,3.813 1.031,3.937 z"
       fill="rgba(68,85,255,1.0)"
       fill-opacity="1"
       stroke="rgba(35,35,35,1.0)"
       stroke-opacity="1"
       stroke-width="16"
       id="path29"
       style="fill:#05b5e5;fill-opacity:1" />
    <path
       d="m 234.482,171.344 4.875,1.219 4.844,-1.407 3.437,-3.656 1.125,-4.5 v -38.375 l -1.312,-4.844 -3.594,-3.5 -4.875,-1.218 -4.844,1.406 -3.437,3.656 -1.125,4.5 V 163 l 1.312,4.844 z"
       fill="rgba(68,85,255,1.0)"
       fill-opacity="1"
       stroke="rgba(35,35,35,1.0)"
       stroke-opacity="1"
       stroke-width="16"
       id="path30"
       style="fill:#05b5e5;fill-opacity:1" />
    <path
       d="m 234.482,56.313 4.875,1.218 4.844,-1.437 3.437,-3.656 1.125,-4.5 V 9.5940002 l -1.312,-4.875 -3.594,-3.5 L 238.982,1.8490721e-7 234.138,1.4060002 l -3.437,3.688 -1.125,4.5 V 47.938 l 1.312,4.843 z"
       fill="rgba(68,85,255,1.0)"
       fill-opacity="1"
       stroke="rgba(35,35,35,1.0)"
       stroke-opacity="1"
       stroke-width="16"
       id="path31"
       style="fill:#05b5e5;fill-opacity:1" />
    <path
       d="m 234.482,113.844 4.875,1.187 4.844,-1.406 3.437,-3.656 1.125,-4.5 V 67.125 l -1.312,-4.875 -3.594,-3.5 -4.875,-1.219 -4.844,1.407 -3.437,3.656 -1.125,4.531 v 38.344 l 1.312,4.844 z"
       fill="rgba(68,85,255,1.0)"
       fill-opacity="1"
       stroke="rgba(35,35,35,1.0)"
       stroke-opacity="1"
       stroke-width="16"
       id="path32"
       style="fill:#05b5e5;fill-opacity:1" />
    <path
       d="m 234.482,286.406 4.875,1.219 4.844,-1.437 3.437,-3.657 1.125,-4.5 v -38.343 l -1.312,-4.844 -3.594,-3.531 -4.875,-1.219 -4.844,1.437 -3.437,3.657 -1.125,4.5 v 38.343 l 1.312,4.844 z"
       fill="rgba(68,85,255,1.0)"
       fill-opacity="1"
       stroke="rgba(35,35,35,1.0)"
       stroke-opacity="1"
       stroke-width="16"
       id="path33"
       style="fill:#05b5e5;fill-opacity:1" />
    <path
       d="m 234.482,228.875 4.875,1.219 4.844,-1.406 3.437,-3.688 1.125,-4.5 v -38.344 l -1.312,-4.843 -3.594,-3.532 -4.875,-1.218 -4.844,1.437 -3.437,3.656 -1.125,4.5 V 220.5 l 1.312,4.875 z"
       fill="rgba(68,85,255,1.0)"
       fill-opacity="1"
       stroke="rgba(35,35,35,1.0)"
       stroke-opacity="1"
       stroke-width="16"
       id="path34"
       style="fill:#05b5e5;fill-opacity:1" />
  </g>
</svg>
