<?xml version="1.0" encoding="UTF-8" standalone="no"?>
<svg
   enable-background="new 0 0 580 580"
   height="515.0791"
   viewBox="0 0 472.06213 515.0791"
   width="472.06213"
   version="1.1"
   id="svg5"
   xmlns="http://www.w3.org/2000/svg"
   xmlns:svg="http://www.w3.org/2000/svg">
  <defs
     id="defs5" />
  <g
     id="layer4"
     style="fill:#e0d455;fill-opacity:1">
    <path
       d="m 235.59527,413.20713 c -0.012,-1.197 -0.453,-2.352 -1.244,-3.251 L 9.7232734,154.34413 c -1.368,-1.557 -3.554,-2.106 -5.496,-1.387 -1.942,0.721 -3.23900002,2.565 -3.25900002,4.637 l -0.96799999274,96.339 c -0.0130000073,1.238 0.43499999274,2.436 1.25500001274,3.363 l 226.5649966,256.096 c 0.968,1.094 2.341,1.687 3.746,1.687 0.023,0 0.046,0 0.069,0 2.738,-0.027 4.951,-2.255 4.951,-5 0,-0.169 -0.009,-0.336 -0.025,-0.501 z"
       fill="rgba(199,52,209,1.0)"
       fill-opacity="1"
       stroke="rgba(35,35,35,0.48627450980392156)"
       stroke-opacity="1"
       stroke-width="0"
       id="path2"
       style="fill:#e0d455;fill-opacity:1" />
    <path
       d="m 468.26127,289.23913 c -2.609,-1.67 -5.931,-1.733 -8.603,-0.167 l -206.25,120.854 c -2.408,1.411 -3.938,3.946 -4.065,6.735 l -0.145,3.186 c -0.137,3.017 1.388,5.866 3.974,7.427 1.309,0.79 2.782,1.185 4.257,1.185 1.439,0 2.879,-0.376 4.165,-1.13 l 206.077,-120.767 c 2.279,-1.336 3.78,-3.684 4.035,-6.313 l 0.317,-3.272 c 0.3,-3.082 -1.154,-6.071 -3.762,-7.738 z"
       fill="rgba(199,52,209,1.0)"
       opacity="0.75"
       stroke="rgba(35,35,35,0.48627450980392156)"
       stroke-width="0"
       id="path3"
       style="fill:#e0d455;fill-opacity:1" />
    <path
       d="m 468.26127,329.23913 c -2.609,-1.669 -5.931,-1.732 -8.603,-0.167 l -206.25,120.854 c -2.408,1.411 -3.938,3.946 -4.065,6.735 l -0.145,3.186 c -0.137,3.017 1.388,5.866 3.974,7.427 1.309,0.79 2.782,1.185 4.257,1.185 1.439,0 2.879,-0.376 4.165,-1.13 l 206.077,-120.767 c 2.279,-1.336 3.78,-3.684 4.035,-6.313 l 0.317,-3.272 c 0.3,-3.082 -1.154,-6.071 -3.762,-7.738 z"
       fill="rgba(199,52,209,1.0)"
       opacity="0.75"
       stroke="rgba(35,35,35,0.48627450980392156)"
       stroke-width="0"
       id="path4"
       style="fill:#e0d455;fill-opacity:1" />
    <path
       d="m 468.05927,266.88213 c 1.294,-0.744 2.188,-2.027 2.437,-3.498 0.249,-1.472 -0.171,-2.978 -1.147,-4.106 L 246.65727,1.7291302 c -1.544,-1.78699996 -4.13,-2.24699996 -6.197,-1.10699996 L 15.830274,124.55413 c -1.327,0.732 -2.25,2.027 -2.51,3.521 -0.26,1.494 0.171,3.024 1.173,4.162 l 228.500996,259.485 c 0.978,1.109 2.356,1.695 3.755,1.695 0.852,0 1.711,-0.217 2.491,-0.666 z"
       fill="rgba(199,52,209,1.0)"
       fill-opacity="1"
       stroke="rgba(35,35,35,0.48627450980392156)"
       stroke-opacity="1"
       stroke-width="0"
       id="path1"
       style="fill:#e0d455;fill-opacity:1" />
    <path
       d="m 468.26127,369.23913 c -2.609,-1.668 -5.931,-1.732 -8.603,-0.167 l -206.25,120.854 c -2.408,1.411 -3.938,3.946 -4.065,6.735 l -0.145,3.186 c -0.137,3.017 1.388,5.866 3.974,7.427 1.309,0.79 2.782,1.185 4.257,1.185 1.439,0 2.879,-0.376 4.165,-1.13 l 206.077,-120.767 c 2.279,-1.336 3.78,-3.684 4.035,-6.313 l 0.317,-3.272 c 0.3,-3.082 -1.154,-6.071 -3.762,-7.738 z"
       fill="rgba(199,52,209,1.0)"
       opacity="0.75"
       stroke="rgba(35,35,35,0.48627450980392156)"
       stroke-width="0"
       id="path5"
       style="fill:#e0d455;fill-opacity:1" />
  </g>
</svg>
