<?xml version="1.0" encoding="UTF-8" standalone="no"?>
<svg
   enable-background="new 0 0 580 580"
   height="451.28601"
   viewBox="0 0 525.46503 451.28601"
   width="525.46503"
   version="1.1"
   id="svg5"
   xmlns="http://www.w3.org/2000/svg"
   xmlns:svg="http://www.w3.org/2000/svg">
  <defs
     id="defs5" />
  <g
     id="layer6"
     style="fill:#639089;fill-opacity:1">
    <path
       d="m 114.176,74.983999 c 10.35,0 19.129,-3.601 26.338,-10.804 7.209,-7.202 10.813,-15.758 10.813,-25.668 0,-10.363 -3.604,-19.146 -10.813,-26.349 -7.209,-7.202 -15.989,-10.803 -26.338,-10.804 -9.91,10e-4 -18.469,3.602 -25.678,10.804 -7.209,7.203 -10.814,15.985 -10.814,26.349 0,9.91 3.604,18.466 10.814,25.668 7.208,7.203 15.768,10.804 25.678,10.804 z"
       fill="rgba(137,170,255,1.0)"
       fill-opacity="1"
       stroke="rgba(35,35,35,1.0)"
       stroke-opacity="1"
       stroke-width="16"
       id="path1"
       style="fill:#639089;fill-opacity:1" />
    <path
       d="m 430.191,74.323999 c 9.909,0 18.469,-3.604 25.678,-10.813 7.209,-7.209 10.813,-15.768 10.814,-25.679 -10e-4,-10.349 -3.605,-19.015 -10.814,-25.998 -7.209,-6.982 -15.769,-10.473 -25.678,-10.474 -9.911,0.001 -18.467,3.492 -25.669,10.474 -7.202,6.983 -10.804,15.649 -10.803,25.998 -10e-4,9.911 3.601,18.47 10.803,25.679 7.203,7.209 15.758,10.814 25.669,10.813 z"
       fill="rgba(137,170,255,1.0)"
       fill-opacity="1"
       stroke="rgba(35,35,35,1.0)"
       stroke-opacity="1"
       stroke-width="16"
       id="path2"
       style="fill:#639089;fill-opacity:1" />
    <path
       d="m 512.288,96.270999 c -8.783,-9.683 -20.157,-14.524 -34.121,-14.524 h -96.611 c -13.058,0 -24.205,4.619 -33.441,13.854 C 338.879,104.838 334.261,116.211 334.261,129.722 v 112.136 c 0,10.817 4.955,16.226 14.865,16.226 9.456,0 14.184,-5.408 14.185,-16.226 V 132.423 h 17.565 v 297.256 c 0,13.511 6.755,20.267 20.267,20.267 13.511,0 20.267,-6.756 20.267,-20.267 V 257.404 h 17.565 v 172.275 c 0,13.511 6.755,20.267 20.267,20.267 13.965,0 20.946,-6.756 20.947,-20.267 V 132.423 h 16.886 v 109.435 c -10e-4,11.257 4.728,16.886 14.185,16.886 9.469,0 14.204,-5.629 14.205,-16.886 V 130.382 c -0.003,-13.057 -4.395,-24.427 -13.177,-34.111001 z"
       fill="rgba(137,170,255,1.0)"
       fill-opacity="1"
       stroke="rgba(35,35,35,1.0)"
       stroke-opacity="1"
       stroke-width="16"
       id="path3"
       style="fill:#639089;fill-opacity:1" />
    <path
       d="m 196.582,115.538 c -2.254,-7.216 -7.429,-14.198 -15.524,-20.947001 -9.91,-8.109 -20.72,-12.164 -32.431,-12.164 H 76.344 c -11.271,0 -21.408,4.055 -30.41,12.164 C 39.171,100.886 34.67,107.869 32.43,115.538 L 1.3400003,218.891 C 0.44600027,221.145 2.6441959e-7,223.173 2.6441959e-7,224.973 2.6441959e-7,235.337 5.1750003,240.518 15.525,240.518 c 7.216,0 11.951,-4.055 14.205,-12.164 L 58.099,133.763 H 73.623 L 27.007,301.977 H 72.282 V 433.04 c 0,11.711 5.628,17.566 16.885,17.566 11.257,0 16.885,-5.855 16.885,-17.566 V 301.318 h 16.906 V 433.72 c 0,11.257 5.628,16.886 16.885,16.886 11.256,0 16.885,-5.629 16.885,-16.886 V 301.977 h 45.254 L 154.707,133.763 h 16.205 l 28.369,94.591 c 2.254,8.109 6.982,12.164 14.185,12.164 10.363,0 15.545,-5.182 15.545,-15.545 0,-2.254 -0.447,-4.281 -1.34,-6.082 z"
       fill="rgba(137,170,255,1.0)"
       fill-opacity="1"
       stroke="rgba(35,35,35,1.0)"
       stroke-opacity="1"
       stroke-width="16"
       id="path4"
       style="fill:#639089;fill-opacity:1" />
    <path
       d="m 256.309,-9.8561358e-7 h 35.812 V 451.286 h -35.812 z"
       fill="rgba(137,170,255,1.0)"
       fill-opacity="1"
       stroke="rgba(35,35,35,1.0)"
       stroke-opacity="1"
       stroke-width="16"
       id="path5"
       style="fill:#639089;fill-opacity:1" />
  </g>
</svg>
