<?xml version="1.0" encoding="UTF-8" standalone="no"?>
<svg
   enable-background="new 0 0 580 580"
   height="398.15601"
   viewBox="0 0 233.29968 398.15601"
   width="233.29968"
   version="1.1"
   id="svg1"
   xmlns="http://www.w3.org/2000/svg"
   xmlns:svg="http://www.w3.org/2000/svg">
  <defs
     id="defs1" />
  <g
     id="layer9"
     style="fill:#249b09;fill-opacity:1">
    <path
       d="m 232.7677,310.25301 -43.753,-64.439 27.66,6.701 c 0.166,0.04 0.334,0.06 0.501,0.06 0.007,0 0.021,0 0.02,0 1.177,0 2.13,-0.953 2.13,-2.129 0,-0.501 -0.174,-0.962 -0.463,-1.326 l -36.178,-59.671 22.456,6.487 c 0.803,0.234 1.665,-0.026 2.207,-0.66 0.543,-0.633 0.666,-1.525 0.315,-2.282 L 118.6367,1.2330109 c -0.374,-0.80599999 -1.2,-1.28099999 -2.064,-1.22899999 -0.854,-0.053 -1.69,0.423 -2.064,1.22899999 L 25.614695,192.99301 c -0.348,0.751 -0.229,1.635 0.304,2.268 0.533,0.632 1.385,0.899 2.184,0.683 l 24.256,-6.564 -38.185,59.92 c -0.467,0.732 -0.442,1.675 0.063,2.382 0.505,0.706 1.389,1.035 2.232,0.832 l 27.799,-6.707 -43.89999974,64.655 c -0.475,0.7 -0.491,1.614 -0.041,2.33 0.451,0.716 1.28000004,1.095 2.11800004,0.972 l 89.9089997,-13.474 v 95.737 c 0,1.176 0.954,2.129 2.129,2.129 H 116.4407 c 0.045,0 0.089,-10e-4 0.133,-0.004 0.044,0.003 0.088,0.004 0.133,0.004 h 21.957 c 1.176,0 2.129,-0.953 2.129,-2.129 v -95.737 l 90.042,13.474 c 0.105,0.016 0.211,0.023 0.315,0.023 0.009,0 0.017,0 0.02,0 1.177,0 2.13,-0.953 2.13,-2.129 -0.002,-0.538 -0.202,-1.03 -0.532,-1.405 z"
       fill="rgba(51,160,44,1.0)"
       fill-opacity="1"
       stroke="rgba(35,86,35,0.24313725490196078)"
       stroke-opacity="1"
       stroke-width="8"
       id="path1"
       style="fill:#249b09;fill-opacity:1" />
  </g>
</svg>
