<?xml version="1.0" encoding="UTF-8" standalone="no"?>
<svg
   enable-background="new 0 0 580 580"
   height="447.90829"
   viewBox="0 0 510.73605 447.90829"
   width="510.73605"
   version="1.1"
   id="svg1"
   xmlns="http://www.w3.org/2000/svg"
   xmlns:svg="http://www.w3.org/2000/svg">
  <defs
     id="defs1" />
  <g
     id="layer11"
     style="fill:#ff91d3;fill-opacity:1">
    <path
       d="m 508.90265,7.1442677 c -3.835,-6.77000001 -12.432,-9.145 -19.2,-5.312 l -49.409,27.9969993 c -3.418,1.937 -5.871,5.211 -6.77,9.036 l -8.17,34.79 H 14.086648 c -4.3530004,0 -8.4600004,2.012 -11.1280004,5.451 -2.668,3.438 -3.598,7.917 -2.518,12.133 L 50.108648,285.06527 c 1.419,5.535 6.041,9.666 11.701,10.455 l 308.017002,42.937 v 16.321 H 95.036648 c -6.052,0 -11.199,3.824 -13.192,9.183 -4.206,2.108 -8.082,4.961 -11.469,8.503 -7.77,8.124 -12.05,18.894 -12.051,30.326 -0.002,23.772 18.688,43.115 41.664,43.118 0.002,0 0.002,0 0.004,0 11.212002,0 21.731002,-4.54 29.617002,-12.784 7.77,-8.124 12.05,-18.894 12.051,-30.326 0,-0.002 0,-0.006 0,-0.008 -0.001,-7.151 -1.703,-13.895 -4.694,-19.838 h 172.065 c -3.731,6.552 -5.727,14.04 -5.728,21.838 -10e-4,23.773 18.689,43.115 41.665,43.118 0.002,0 0.003,0 0.005,0 11.212,0 21.73,-4.54 29.616,-12.784 7.77,-8.124 12.05,-18.894 12.051,-30.326 0,-0.002 0,-0.006 0,-0.008 -10e-4,-7.966 -2.109,-15.429 -5.766,-21.838 h 3.037 c 7.78,0 14.087,-6.307 14.087,-14.087 v -43.981 l 52.701,-234.048003 c 0.247,-1.098 0.352,-2.209 0.335,-3.313 l 8.505,-36.219 44.051,-24.96 c 6.769,-3.835 9.148,-12.431 5.312,-19.1999993 z M 95.350648,254.64027 h 68.301002 v 26.63 l -69.851002,-9.737 c 0.977,-1.481 1.549,-3.254 1.549,-5.161 v -11.732 z m -44.219,-79.084 h 25.437 v 60.302 h -9.984 z m 44.219,0 h 68.301002 v 60.302 H 95.350648 Z m 289.915002,60.302 h -22.664 v -60.302 h 38.822 l -14.21,60.507 c -0.629,-0.132 -1.28,-0.205 -1.948,-0.205 z m -41.445,0 h -70.303 v -60.302 h 70.303 z m -89.084,0 h -72.302 v -60.302 h 72.302 z m 18.781,-79.084 v -54.946 h 70.303 v 54.946 z m -18.781,0 h -72.302 v -54.946 h 72.302 z m -91.085,0 H 95.350648 v -54.946 h 68.301002 z m 18.782,97.866 h 72.302 v 39.326 l -72.302,-10.078 z m 91.084,40.683 v -40.684 h 70.303 v 51.745 l -70.396,-9.813 c 0.055,-0.409 0.093,-0.824 0.093,-1.248 z m 89.084,13.362 v -54.046 h 20.25 l -12.651,53.875 c -0.117,0.499 -0.202,1.004 -0.264,1.512 l -7.351,-1.025 c 0.003,-0.107 0.016,-0.209 0.016,-0.316 z m 43.142,-151.523 c -0.844,-0.249 -1.735,-0.388 -2.66,-0.388 h -40.481 v -54.946 h 56.136 z m -329.175002,-55.334 v 54.946 h -30.25 l -14.08,-54.946 z m -5.172,152.812 h 5.172 v 11.731 c 0,0.982 0.152,1.929 0.432,2.819 l -1.944,-0.271 z m 50.265002,148.15 c 0,0.002 0,0.002 0,0.004 0,6.258 -2.311,12.119 -6.504,16.504 -4.076,4.262 -9.461,6.608 -15.164002,6.608 0,0 -10e-4,0 -0.002,0 -11.948,-0.001 -21.667,-10.371 -21.666,-23.116 0,-6.259 2.31,-12.119 6.504,-16.504 1.637,-1.712 3.493,-3.098 5.488,-4.164 1.478,0.526 3.062,0.828 4.72,0.828 h 16.055002 c 6.324,4.041 10.569,11.421 10.569,19.84 z m 244.981,2 c 0,0.002 0,0.002 0,0.004 -10e-4,6.258 -2.311,12.119 -6.504,16.504 -4.077,4.262 -9.462,6.608 -15.163,6.608 -10e-4,0 -0.002,0 -0.003,0 -11.948,-0.001 -21.668,-10.371 -21.667,-23.116 10e-4,-6.258 2.311,-12.119 6.504,-16.504 2.338,-2.443 5.113,-4.233 8.124,-5.336 h 14.117 c 8.482,3.136 14.591,11.739 14.592,21.84 z"
       fill="rgba(53,209,199,1.0)"
       fill-opacity="1"
       stroke="rgba(35,35,35,0.48627450980392156)"
       stroke-opacity="1"
       stroke-width="0"
       id="path1"
       style="fill:#ff91d3;fill-opacity:1" />
  </g>
</svg>
