<?xml version="1.0" encoding="UTF-8" standalone="no"?>
<!-- Uploaded to: SVG Repo, www.svgrepo.com, Generator: SVG Repo Mixer Tools -->

<svg
   width="800"
   height="800"
   viewBox="0 0 1024 1024"
   fill="#000000"
   class="icon"
   version="1.1"
   id="svg1"
   xmlns="http://www.w3.org/2000/svg"
   xmlns:svg="http://www.w3.org/2000/svg">
  <defs
     id="defs1" />
  <g
     id="layer2"
     style="fill:#28aeff;fill-opacity:1">
    <path
       d="m 512,201.07636 c 33.97818,55.15637 69.81818,105.65819 103.56364,152.90182 C 700.74182,473.6 768,568.08727 768,674.90909 c 0,116.36364 -114.26909,256 -256,256 -141.73091,0 -256,-139.63636 -256,-256 C 256,568.08727 323.25818,473.6 408.43636,353.97818 441.94909,307.43273 478.25455,256.23273 512,201.07636 M 512,0 C 395.63636,279.27273 162.90909,442.18182 162.90909,674.90909 162.90909,845.49818 323.49091,1024 512,1024 700.50909,1024 861.09091,845.49818 861.09091,674.90909 861.09091,442.18182 628.36364,279.27273 512,0 Z m 63.53454,744.72727 A 116.36364,116.36364 0 0 1 495.47636,713.07636 L 465.45454,683.52 a 23.272727,23.272727 0 0 0 -31.88363,0 l -28.16,26.76364 a 46.585584,46.585584 0 1 1 -64.23273,-67.49091 l 28.16,-26.76364 a 116.36364,116.36364 0 0 1 160.11636,0 l 29.09091,29.55637 a 23.272727,23.272727 0 0 0 31.88364,0 l 28.16,-26.76364 a 46.585584,46.585584 0 1 1 64.23273,67.49091 l -28.16,26.76363 a 116.36364,116.36364 0 0 1 -79.12728,31.65091 z"
       id="path1"
       style="fill:#28aeff;fill-opacity:1" />
  </g>
</svg>
